<svg xmlns="http://www.w3.org/2000/svg" xmlns:xlink="http://www.w3.org/1999/xlink" xmlns:serif="http://www.serif.com/" width="100%" height="100%" viewBox="0 0 263 65" xml:space="preserve" style="fill-rule:evenodd;clip-rule:evenodd;stroke-linejoin:round;stroke-miterlimit:2;">    <g transform="matrix(1,0,0,1,-17.9454,-5.04536)">        <g>            <g>                <g>                    <g>                        <g>                            <g>                                <path d="M96.1,55.9L106.3,55.9L106.5,60L105.8,60C105.7,59.1 105.4,58.3 105.2,57.9C105,57.5 104.6,57.2 104.3,57C103.9,56.8 103.4,56.7 102.7,56.7L101.1,56.7C100.9,56.7 100.7,56.8 100.6,56.8C100.5,56.9 100.5,57 100.5,57.2L100.5,61.2L101.1,61.2C101.7,61.2 102.2,61.1 102.5,60.7C102.9,60.3 103.1,59.8 103.1,59L103.8,59L103.8,64.4L103.1,64.4C103,63.5 102.9,62.9 102.5,62.5C102.1,62.1 101.6,61.9 100.9,61.9L100.4,61.9L100.4,66.2C100.4,66.4 100.5,66.5 100.5,66.6C100.6,66.7 100.9,66.7 101.2,66.7L102.6,66.7C103.5,66.7 104.3,66.4 105,65.8C105.6,65.2 106,64.3 106.2,63L106.9,63L106.8,67.5L96.1,67.5L96.1,66.8L97.2,66.8C97.4,66.8 97.6,66.7 97.7,66.6C97.8,66.5 97.9,66.3 97.9,66.1L97.9,57.1C97.9,56.9 97.8,56.7 97.7,56.7C97.6,56.6 97.3,56.6 97.1,56.6L96.2,56.6L96.2,55.9L96.1,55.9Z" style="fill:rgb(37,90,168);fill-rule:nonzero;"></path>                                <path d="M107.3,56.6L107.3,55.9L113.3,55.9L113.3,56.6L112.3,56.6C112,56.6 111.8,56.7 111.7,56.7C111.6,56.8 111.6,57 111.6,57.2L111.6,65.9C111.6,66.3 111.7,66.5 111.7,66.5C111.8,66.6 112.1,66.6 112.5,66.6L114.2,66.6C114.8,66.6 115.4,66.3 115.9,65.7C116.5,65.1 116.8,64.2 117.1,62.8L117.8,62.8L117.5,67.3L107.3,67.3L107.3,66.6L108.3,66.6C108.5,66.6 108.7,66.5 108.8,66.5C108.9,66.4 108.9,66.2 108.9,66L108.9,57.2C108.9,57 108.8,56.8 108.8,56.7C108.7,56.6 108.5,56.6 108.2,56.6C108.3,56.6 107.3,56.6 107.3,56.6Z" style="fill:rgb(37,90,168);fill-rule:nonzero;"></path>                                <path d="M126.9,60.7C127.8,62.3 128.8,63.6 129.6,64.7C130.3,63.8 130.7,63 130.7,62.5C130.7,62.2 130.6,62 130.4,61.9C130.2,61.8 129.8,61.6 129.2,61.6L129.2,60.9L133.7,60.9L133.7,61.6C133.2,61.6 132.8,61.7 132.5,61.9C132.2,62.1 131.9,62.5 131.4,63.3C131,64 130.6,64.6 130.2,65.2C130.6,65.6 130.9,65.9 131.2,66.1C131.5,66.3 131.7,66.3 131.9,66.3C132.3,66.3 132.5,66.2 132.7,65.9C132.9,65.6 133.1,65.3 133.1,64.7L133.8,64.7C133.8,65.7 133.6,66.4 133.2,66.9C132.7,67.5 132,67.8 131.2,67.8C130.8,67.8 130.4,67.7 130,67.6C129.6,67.5 129.1,67.2 128.6,66.7C128,67.1 127.4,67.4 126.9,67.6C126.4,67.7 125.9,67.8 125.3,67.8C124.2,67.8 123.4,67.5 122.7,66.9C122.1,66.3 121.7,65.5 121.7,64.7C121.7,63.2 122.7,62 124.7,61.1C124.3,60.4 124.1,59.8 124,59.4C123.9,59 123.9,58.7 123.9,58.3C123.9,57.6 124.2,56.9 124.8,56.4C125.4,55.9 126.2,55.6 127.1,55.6C128,55.6 128.8,55.8 129.3,56.2C129.8,56.6 130,57.1 130,57.7C130,58.2 129.8,58.7 129.4,59.2C128.9,59.7 128.1,60.2 126.9,60.7ZM125.1,61.7C124.7,62 124.4,62.3 124.2,62.6C124.1,62.9 124,63.2 124,63.6C124,64.3 124.2,65 124.7,65.6C125.2,66.2 125.8,66.5 126.5,66.5C127,66.5 127.5,66.4 128.1,66C127.2,64.9 126.7,64.2 126.4,63.8C126.2,63.5 125.7,62.8 125.1,61.7ZM126.7,60.1C127.3,59.8 127.7,59.5 127.9,59.2C128.1,58.8 128.3,58.4 128.3,57.9C128.3,57.4 128.2,57 127.9,56.7C127.7,56.4 127.4,56.3 127,56.3C126.6,56.3 126.4,56.4 126.1,56.7C125.9,56.9 125.7,57.3 125.7,57.7C125.8,58.3 126.1,59.1 126.7,60.1Z" style="fill:rgb(37,90,168);fill-rule:nonzero;"></path>                                <path d="M137.6,55.9L147.8,55.9L148,60L147.3,60C147.2,59.1 146.9,58.3 146.7,57.9C146.5,57.5 146.1,57.2 145.8,57C145.4,56.8 144.9,56.7 144.2,56.7L142.6,56.7C142.4,56.7 142.2,56.8 142.1,56.8C142,56.9 142,57 142,57.2L142,61.2L142.6,61.2C143.2,61.2 143.7,61.1 144,60.7C144.3,60.3 144.6,59.8 144.6,59L145.3,59L145.3,64.4L144.6,64.4C144.5,63.5 144.4,62.9 144,62.5C143.6,62.1 143.1,61.9 142.4,61.9L142,61.9L142,66.2C142,66.4 142.1,66.5 142.1,66.6C142.2,66.7 142.5,66.7 142.8,66.7L144.2,66.7C145.1,66.7 145.9,66.4 146.6,65.8C147.2,65.2 147.6,64.3 147.8,63L148.5,63L148.4,67.5L137.8,67.5L137.8,66.8L138.9,66.8C139.1,66.8 139.3,66.7 139.4,66.6C139.5,66.5 139.6,66.3 139.6,66.1L139.6,57.1C139.6,56.9 139.5,56.7 139.4,56.7C139.3,56.6 139,56.6 138.8,56.6L137.9,56.6L137.6,55.9Z" style="fill:rgb(37,90,168);fill-rule:nonzero;"></path>                                <path d="M148.8,56.6L148.8,55.9L154.8,55.9L154.8,56.6L153.8,56.6C153.5,56.6 153.3,56.7 153.2,56.7C153.1,56.8 153.1,57 153.1,57.2L153.1,65.9C153.1,66.3 153.2,66.5 153.2,66.5C153.3,66.6 153.6,66.6 154,66.6L155.7,66.6C156.3,66.6 156.9,66.3 157.4,65.7C158,65.1 158.3,64.2 158.6,62.8L159.3,62.8L159,67.3L148.8,67.3L148.8,66.6L149.8,66.6C150,66.6 150.2,66.5 150.3,66.5C150.4,66.4 150.4,66.2 150.4,66L150.4,57.2C150.4,57 150.3,56.8 150.3,56.7C150.2,56.6 150,56.6 149.7,56.6C149.8,56.6 148.8,56.6 148.8,56.6Z" style="fill:rgb(37,90,168);fill-rule:nonzero;"></path>                                <path d="M161.7,55.9L166.4,55.9L166.4,56.6L166,56.6C165.7,56.6 165.6,56.6 165.4,56.7C165.3,56.8 165.3,56.8 165.3,57C165.3,57.1 165.3,57.2 165.4,57.3L167.7,64.2L169.7,58.2L169.3,57.2C169.2,57 169.2,56.8 169,56.8C168.9,56.7 168.6,56.7 168.3,56.7L167.7,56.7L167.7,56L173.1,56L173.1,56.7L172.6,56.7C172.2,56.7 172,56.8 171.9,56.8C171.8,56.9 171.7,57 171.7,57.2C171.7,57.3 171.7,57.3 171.8,57.4L174.1,64.3L176,58.2C176.1,58 176.1,57.8 176.1,57.7C176.1,57.4 176,57.1 175.8,57C175.7,56.9 175.4,56.7 175.2,56.7L174.8,56.7L174.8,56L178.6,56L178.6,56.7C178.2,56.7 177.9,56.8 177.6,57C177.4,57.2 177.2,57.4 177,57.9L173.8,67.9L172.9,67.9L170.2,59.7L167.5,67.9L166.6,67.9L163,57.4C162.9,57.2 162.9,57 162.7,57C162.6,56.9 162.4,56.9 162.3,56.9L161.9,56.9L161.9,55.9L161.7,55.9Z" style="fill:rgb(37,90,168);fill-rule:nonzero;"></path>                                <path d="M181,59.8C181.8,59.8 182.6,59.9 183.3,60.3C184,60.7 184.5,61.1 184.8,61.7C185.2,62.3 185.3,63 185.3,63.8C185.3,65.1 184.9,66.1 184,66.8C183.1,67.5 182.1,67.8 181,67.8C180.2,67.8 179.5,67.7 178.8,67.3C178.2,66.9 177.6,66.4 177.3,65.9C176.9,65.3 176.8,64.6 176.8,63.9C176.8,62.7 177.2,61.8 178,61C178.8,60.1 179.8,59.8 181,59.8ZM181.1,60.5C180.5,60.5 180.1,60.7 179.8,61.2C179.5,61.7 179.3,62.5 179.3,63.7C179.3,64.9 179.4,65.8 179.8,66.3C180.1,66.8 180.5,67 181.1,67C181.7,67 182.1,66.8 182.5,66.3C182.9,65.8 183,65 183,63.8C183,62.6 182.9,61.7 182.5,61.2C182.1,60.7 181.6,60.5 181.1,60.5Z" style="fill:rgb(37,90,168);fill-rule:nonzero;"></path>                                <path d="M189.8,59.8C190.6,59.8 191.4,59.9 192.1,60.3C192.8,60.7 193.3,61.1 193.6,61.7C194,62.3 194.1,63 194.1,63.8C194.1,65.1 193.7,66.1 192.8,66.8C191.9,67.5 190.9,67.8 189.8,67.8C189,67.8 188.3,67.7 187.6,67.3C187,66.9 186.4,66.4 186.1,65.9C185.7,65.3 185.6,64.6 185.6,63.9C185.6,62.7 186,61.8 186.8,61C187.6,60.1 188.6,59.8 189.8,59.8ZM189.8,60.5C189.2,60.5 188.8,60.7 188.5,61.2C188.2,61.7 188,62.5 188,63.7C188,64.9 188.1,65.8 188.5,66.3C188.8,66.8 189.2,67 189.8,67C190.4,67 190.8,66.8 191.2,66.3C191.6,65.8 191.7,65 191.7,63.8C191.7,62.6 191.6,61.7 191.2,61.2C190.8,60.7 190.4,60.5 189.8,60.5Z" style="fill:rgb(37,90,168);fill-rule:nonzero;"></path>                                <path d="M199,55.9L202.7,55.8L202.7,65.5C202.7,66 202.7,66.3 202.8,66.5C202.9,66.6 202.9,66.8 203.1,66.9C203.2,67 203.5,67 203.9,67L203.9,67.7L200.9,67.8L200.7,66.4C200.3,67 199.8,67.4 199.5,67.6C199.1,67.8 198.6,67.9 198.1,67.9C197.1,67.9 196.3,67.5 195.6,66.9C195,66.3 194.7,65.3 194.7,64.2C194.7,62.9 195.1,61.9 195.7,61.2C196.3,60.5 197.2,60 198.2,60C198.7,60 199.2,60.1 199.6,60.4C200,60.6 200.4,61 200.8,61.6L200.8,58C200.8,57.6 200.7,57.3 200.7,57.1C200.7,56.9 200.6,56.8 200.4,56.7C200.3,56.6 200,56.6 199.6,56.6L199,56.6L199,55.9ZM198.7,60.8C198.1,60.8 197.6,61.1 197.3,61.6C197.1,62 196.9,62.8 196.9,63.7C196.9,64.5 197,65.1 197.1,65.5C197.2,65.9 197.5,66.1 197.7,66.4C198,66.6 198.3,66.7 198.6,66.7C199.1,66.7 199.5,66.5 199.9,66C200.3,65.4 200.5,64.6 200.5,63.7C200.5,62.8 200.3,62.1 199.9,61.6C199.6,61 199.2,60.8 198.7,60.8Z" style="fill:rgb(37,90,168);fill-rule:nonzero;"></path>                                <path d="M207.8,55.9L214.8,55.9C216,55.9 216.9,56.2 217.6,56.8C218.3,57.4 218.7,58.2 218.7,59.1C218.7,59.7 218.5,60.4 218.1,60.9C217.7,61.4 217.2,61.8 216.4,62C215.7,62.2 215,62.4 214.4,62.4L212.2,62.4L212.2,66.2C212.2,66.4 212.3,66.6 212.4,66.7C212.5,66.8 212.7,66.8 212.8,66.8L214.2,66.8L214.2,67.5L207.8,67.5L207.8,66.8L208.8,66.8C209,66.8 209.2,66.7 209.3,66.7C209.4,66.6 209.4,66.4 209.4,66.2L209.4,57.3C209.4,57.1 209.3,56.9 209.2,56.8C209.1,56.7 208.9,56.7 208.8,56.7L207.8,56.7L207.8,55.9ZM212.1,61.6L213.5,61.6C214,61.6 214.4,61.5 214.9,61.3C215.3,61.1 215.5,60.8 215.8,60.5C215.9,60.2 216,59.7 216,59C216,58.1 215.7,57.4 215.2,57C214.8,56.7 214.2,56.6 213.3,56.6C212.8,56.6 212.4,56.7 212.3,56.7C212.2,56.8 212.1,56.9 212.1,57.1L212.1,61.6Z" style="fill:rgb(37,90,168);fill-rule:nonzero;"></path>                                <path d="M223.9,66.8L223.9,67.5L218.7,67.5L218.7,66.8L219.3,66.8C219.6,66.8 219.7,66.7 219.9,66.7C220,66.6 220.1,66.5 220.1,66.3L220.1,61.9C220.1,61.5 220,61.3 219.9,61.1C219.8,61 219.5,60.9 219.3,60.9L218.9,60.9L218.9,60.2L222.1,60.1L222.1,62.5C222.3,61.7 222.6,61.1 223,60.6C223.4,60.2 223.9,60 224.5,60C225,60 225.4,60.1 225.7,60.4C226,60.7 226.1,61 226.1,61.4C226.1,61.8 226,62 225.8,62.3C225.6,62.5 225.4,62.7 225.1,62.7C224.8,62.7 224.6,62.6 224.5,62.4C224.4,62.2 224.2,62 224.2,61.7C224.2,61.6 224.3,61.3 224.3,61.2C224.4,61.1 224.4,61.1 224.4,61L224.2,60.8C224,60.8 223.8,60.9 223.6,61.2C223.2,61.6 223,62.1 222.7,62.8C222.5,63.5 222.3,64.2 222.3,65L222.3,66.6C222.3,66.8 222.4,67 222.4,67C222.5,67.1 222.6,67.1 222.8,67.1L223.9,66.8Z" style="fill:rgb(37,90,168);fill-rule:nonzero;"></path>                                <path d="M230.2,59.8C231,59.8 231.8,59.9 232.5,60.3C233.2,60.7 233.7,61.1 234,61.7C234.4,62.3 234.5,63 234.5,63.8C234.5,65.1 234.1,66.1 233.2,66.8C232.3,67.5 231.3,67.8 230.2,67.8C229.4,67.8 228.7,67.7 228,67.3C227.4,66.9 226.8,66.4 226.5,65.9C226.1,65.3 226,64.6 226,63.9C226,62.7 226.4,61.8 227.2,61C228,60.1 229,59.8 230.2,59.8ZM230.2,60.5C229.6,60.5 229.2,60.7 228.9,61.2C228.6,61.7 228.4,62.5 228.4,63.7C228.4,64.9 228.5,65.8 228.9,66.3C229.2,66.8 229.6,67 230.2,67C230.8,67 231.2,66.8 231.6,66.3C232,65.8 232.1,65 232.1,63.8C232.1,62.6 232,61.7 231.6,61.2C231.2,60.7 230.8,60.5 230.2,60.5Z" style="fill:rgb(37,90,168);fill-rule:nonzero;"></path>                                <path d="M239.3,55.9L243,55.8L243,65.5C243,66 243,66.3 243.1,66.5C243.2,66.6 243.2,66.8 243.4,66.9C243.5,67 243.8,67 244.2,67L244.2,67.7L241.2,67.8L241,66.4C240.6,67 240.1,67.4 239.8,67.6C239.4,67.8 238.9,67.9 238.4,67.9C237.4,67.9 236.6,67.5 235.9,66.9C235.3,66.3 235,65.3 235,64.2C235,62.9 235.4,61.9 236,61.2C236.6,60.5 237.5,60 238.5,60C239,60 239.5,60.1 239.9,60.4C240.3,60.6 240.7,61 241.1,61.6L241.1,58C241.1,57.6 241,57.3 241,57.1C240.9,57 240.9,56.8 240.7,56.7C240.6,56.6 240.3,56.6 239.9,56.6L239.5,56.6L239.5,55.9L239.3,55.9ZM239.1,60.8C238.5,60.8 238,61.1 237.7,61.6C237.5,62 237.3,62.8 237.3,63.7C237.3,64.5 237.4,65.1 237.5,65.5C237.6,65.9 237.9,66.1 238.1,66.4C238.4,66.6 238.7,66.7 239,66.7C239.5,66.7 239.9,66.5 240.3,66C240.7,65.4 240.9,64.6 240.9,63.7C240.9,62.8 240.7,62.1 240.3,61.6C240,61 239.6,60.8 239.1,60.8Z" style="fill:rgb(37,90,168);fill-rule:nonzero;"></path>                                <path d="M243.9,60.1L247.2,59.9L247.2,64.8C247.2,65.2 247.3,65.6 247.6,65.9C247.8,66.2 248.2,66.3 248.5,66.3C249.1,66.3 249.5,66.1 249.8,65.7C250.2,65.3 250.3,64.8 250.3,64.1L250.3,61.7C250.3,61.4 250.2,61.2 250.1,61.1C250,61 249.7,60.9 249.5,60.9L249,60.9L249,60.2L252.3,60L252.3,66C252.3,66.3 252.4,66.5 252.5,66.6C252.6,66.7 252.9,66.8 253.1,66.8L253.5,66.8L253.5,67.5L250.5,67.6C250.4,67.1 250.3,66.5 250.3,65.9C249.8,66.5 249.3,67 248.9,67.3C248.4,67.6 248,67.7 247.5,67.7C247,67.7 246.6,67.6 246.2,67.4C245.8,67.2 245.6,66.8 245.4,66.4C245.2,66 245.1,65.4 245.1,64.7L245.1,61.7C245.1,61.4 245,61.1 244.9,61C244.8,60.9 244.4,60.8 244,60.8L243.9,60.1Z" style="fill:rgb(37,90,168);fill-rule:nonzero;"></path>                                <path d="M260.7,64.9L261.3,65.2C261,66.1 260.5,66.6 259.8,67.1C259.1,67.6 258.4,67.7 257.4,67.7C256.2,67.7 255.2,67.3 254.5,66.7C253.8,66.1 253.4,65.1 253.4,64C253.4,62.8 253.8,61.8 254.6,61C255.4,60.2 256.5,59.8 257.9,59.8C258.9,59.8 259.6,60 260.1,60.4C260.6,60.8 260.9,61.3 260.9,61.8C260.9,62.2 260.8,62.5 260.5,62.8C260.3,63.1 260,63.2 259.6,63.2C259.2,63.2 259,63.1 258.8,62.9C258.6,62.7 258.5,62.5 258.5,62.2C258.5,61.9 258.6,61.6 258.8,61.3C258.9,61.2 258.9,61.1 258.9,61C258.9,60.9 258.8,60.8 258.7,60.7C258.5,60.6 258.2,60.5 257.8,60.5C257.1,60.5 256.6,60.7 256.3,61.1C255.9,61.7 255.7,62.5 255.7,63.8C255.7,65 255.9,65.8 256.3,66.3C256.7,66.8 257.2,67 257.9,67C258.4,67 258.9,66.9 259.3,66.5C260.1,66.1 260.5,65.6 260.7,64.9Z" style="fill:rgb(37,90,168);fill-rule:nonzero;"></path>                                <path d="M263.8,57.1L264.5,57.1L264.5,60.1L267,60.1L267,61L264.5,61L264.5,65.7C264.5,66 264.6,66.3 264.7,66.4C264.8,66.5 265.1,66.7 265.3,66.7C266,66.7 266.5,66 266.5,64.6L267.2,64.6C267.2,65.3 267.1,65.9 266.8,66.3C266.5,66.7 266.3,67.1 265.9,67.3C265.5,67.5 265,67.7 264.5,67.7C264.1,67.7 263.7,67.6 263.3,67.4C263,67.3 262.7,67 262.5,66.6C262.3,66.2 262.2,65.9 262.2,65.4L262.2,60.9L260.9,60.9L260.9,60.2C261.7,60.1 262.3,59.8 262.8,59.3C263.5,58.8 263.7,58.1 263.8,57.1Z" style="fill:rgb(37,90,168);fill-rule:nonzero;"></path>                                <path d="M272.4,60.3L272.9,59.7L273.4,59.7L273.5,62.3L272.9,62.3C272.5,61.7 272.2,61.1 271.8,60.9C271.4,60.6 270.9,60.5 270.4,60.5C269.9,60.5 269.5,60.6 269.2,60.8C268.9,61 268.8,61.2 268.8,61.5C268.8,61.8 268.9,62 269.1,62.1C269.3,62.2 269.8,62.4 270.8,62.6C271.6,62.7 272.2,62.9 272.4,63C272.9,63.2 273.3,63.5 273.6,63.9C273.9,64.3 274,64.8 274,65.3C274,65.9 273.7,66.5 273.2,67C272.6,67.4 271.9,67.7 271,67.7C270.6,67.7 270.2,67.6 269.8,67.6C269.4,67.5 269.1,67.3 268.7,67.1L268.1,67.7L267.5,67.7L267.4,64.9L268,64.9C268.6,66.3 269.5,67 270.9,67C271.5,67 271.9,66.9 272.2,66.7C272.5,66.5 272.6,66.2 272.6,65.9C272.6,65.6 272.5,65.4 272.3,65.3C272.1,65.2 271.7,65 270.9,64.9C270,64.8 269.5,64.6 269.2,64.5C268.7,64.3 268.3,64 268,63.6C267.7,63.2 267.6,62.8 267.6,62.3C267.6,61.6 267.8,60.9 268.3,60.5C268.8,60 269.5,59.8 270.2,59.8C270.6,59.8 271,59.9 271.3,59.9C271.8,60 272.1,60.1 272.4,60.3Z" style="fill:rgb(37,90,168);fill-rule:nonzero;"></path>                            </g>                        </g>                    </g>                    <path d="M274.1,46.3L95.7,46.3C95.1,46.3 94.7,46.7 94.7,47.3C94.7,47.9 95.1,48.3 95.7,48.3L274.1,48.3C274.7,48.3 275.1,47.9 275.1,47.3C275.1,46.7 274.7,46.3 274.1,46.3Z" style="fill:rgb(28,28,28);fill-rule:nonzero;"></path>                </g>                <g>                    <path d="M140.7,34.4L140.7,9.7C140.7,9.5 140.6,9.3 140.4,9.1C139.9,8.9 139.5,8.4 139.5,7.8C139.5,7 140.1,6.4 140.9,6.4L158.1,6.4C158.9,6.4 159.5,7 159.5,7.8C159.5,8.6 158.9,9.2 158.2,9.2L143.2,9.2C143.4,9.4 143.5,9.8 143.4,10.1L143.4,19.4L156,19.4C156.8,19.4 157.4,20 157.4,20.8C157.4,21.6 156.8,22.2 156,22.2L143.4,22.2L143.4,34C143.5,34.3 143.4,34.6 143.2,34.9L158.9,34.9C159.6,34.9 160.3,35.5 160.3,36.3L160.3,36.4C160.3,37.2 159.7,37.8 158.9,37.9L140.9,37.9C140.1,37.9 139.5,37.3 139.5,36.5C139.5,35.9 139.9,35.4 140.4,35.2C140.6,34.9 140.7,34.7 140.7,34.4" style="fill:rgb(28,28,28);fill-rule:nonzero;"></path>                    <path d="M177.6,36.2L177.6,9.2L169.4,9.2C168.6,9.1 168,8.5 168.1,7.7C168.2,7 168.7,6.4 169.4,6.4L188.5,6.4C189.3,6.3 190,6.9 190,7.7C190.1,8.5 189.5,9.2 188.7,9.2L180.4,9.2L180.4,36.3C180.4,37.1 179.8,37.7 179,37.8C178.2,37.7 177.6,37 177.6,36.2" style="fill:rgb(28,28,28);fill-rule:nonzero;"></path>                    <path d="M213,20.2C216.1,20.3 218.7,18 218.8,14.9L218.8,14.7C218.8,11.4 216.2,9.3 213,9.3L203.4,9.3C203.6,9.5 203.7,9.9 203.6,10.2L203.6,20.3L213,20.2ZM225.3,36.3C225.3,37.1 224.7,37.7 223.9,37.7C215.2,37.7 214.8,23.1 209.3,23.1L203.8,23.1L203.8,36.3C203.8,37.1 203.2,37.7 202.4,37.7C201.6,37.7 201,37.1 201,36.3L201,9.6C201,9.4 200.9,9.1 200.7,9C200.2,8.8 199.9,8.3 199.9,7.7C199.9,6.9 200.5,6.3 201.3,6.3L213,6.3C217.8,6.3 221.7,9.8 221.7,14.6C221.7,19.2 217.8,23 214.1,23C217.1,26 218.7,34.8 223.7,34.8C224.7,34.9 225.3,35.5 225.3,36.3" style="fill:rgb(28,28,28);fill-rule:nonzero;"></path>                    <path d="M236.1,36.3L236.1,9.5C236.1,7.8 237,6.3 238.6,6.3C239.4,6.3 240,6.9 240,7.7C240,8.3 239.7,8.8 239.2,9C239,9.1 238.8,9.4 238.9,9.6L238.9,36.2C238.8,37 238.3,37.6 237.5,37.6C236.8,37.7 236.1,37 236.1,36.3" style="fill:rgb(28,28,28);fill-rule:nonzero;"></path>                    <path d="M254.5,34.4L254.5,9.7C254.5,9.5 254.4,9.2 254.2,9.1C253.7,8.9 253.3,8.4 253.3,7.8C253.3,7 253.9,6.4 254.7,6.4L272,6.4C272.8,6.4 273.4,7 273.4,7.8C273.4,8.6 272.8,9.2 272.1,9.2L257.1,9.2C257.3,9.4 257.4,9.8 257.3,10.1L257.3,19.4L270,19.4C270.8,19.4 271.4,20 271.4,20.8C271.4,21.6 270.8,22.2 270,22.2L257.4,22.2L257.4,34C257.5,34.3 257.4,34.6 257.2,34.9L272.9,34.9C273.6,34.9 274.3,35.5 274.3,36.3L274.3,36.4C274.3,37.2 273.7,37.8 272.9,37.9L254.8,37.8C254,37.8 253.4,37.2 253.3,36.4C253.3,35.8 253.7,35.3 254.2,35.1C254.5,34.9 254.5,34.7 254.5,34.4" style="fill:rgb(28,28,28);fill-rule:nonzero;"></path>                    <path d="M277.1,36.3C277.1,35.5 277.7,34.9 278.5,34.8C279.3,34.8 279.9,35.4 280,36.2C280,37 279.4,37.6 278.6,37.7C277.8,37.7 277.1,37.1 277.1,36.3ZM279.8,36.3C279.8,35.6 279.2,35.1 278.6,35.1C277.9,35.1 277.4,35.7 277.4,36.3C277.4,37 278,37.5 278.6,37.5C279.3,37.5 279.8,37 279.8,36.3ZM278.1,35.5L278.6,35.5C278.8,35.5 279.1,35.6 279.1,35.9L279.1,36C279.1,36.2 279,36.4 278.7,36.4L279.1,36.9L279.1,37C279.1,37.1 279.1,37.1 279,37.1L278.6,36.5L278.2,36.5L278.2,37C278.2,37.1 278.2,37.1 278.1,37.1C278,37.1 278,37.1 278,37L278,35.6C278,35.5 278.1,35.5 278.1,35.5ZM278.2,36.2L278.6,36.2C278.8,36.2 279,36.1 279,35.9C279,35.7 278.9,35.6 278.6,35.6L278.2,35.6L278.2,36.2Z" style="fill:rgb(28,28,28);fill-rule:nonzero;"></path>                    <path d="M125.1,35C124.9,34.9 124.7,34.6 124.8,34.4L124.8,9.7C124.8,9.5 124.9,9.2 125.1,9.1C125.6,8.9 125.9,8.4 125.9,7.8C125.9,7 125.3,6.4 124.5,6.4L124.4,6.4C123.5,6.4 122.7,6.9 122.3,7.7L110.8,30L99.3,7.7C98.9,6.9 98.1,6.4 97.2,6.4C96.4,6.4 95.8,7 95.7,7.8L95.7,7.9C95.7,8.5 96,9 96.5,9.2C96.7,9.3 96.9,9.6 96.8,9.8L96.8,34.6C96.8,34.8 96.7,35 96.5,35.2C96,35.4 95.6,35.9 95.7,36.5C95.7,37.3 96.3,37.9 97.1,37.9C98.8,37.9 99.6,36.5 99.6,34.7L99.6,18.7C99.6,16.8 99.5,14 99.5,14L109.5,33.8C109.9,34.4 110.7,34.7 111.3,34.4C111.6,34.3 111.7,34 111.9,33.8L122,13.9C122,13.9 121.9,16.6 121.9,18.6L121.9,34.6C121.9,36.3 122.7,37.8 124.4,37.8C125.2,37.8 125.8,37.2 125.9,36.4L125.9,36.3C125.9,35.7 125.6,35.2 125.1,35Z" style="fill:rgb(28,28,28);fill-rule:nonzero;"></path>                </g>            </g>            <g>                <path d="M81.6,36.2C78.6,33.4 76.8,29.3 76.9,25.2C76.9,22.7 77.1,20.3 77.3,18.1C77.7,13.9 74.7,10.2 70.5,9.7C70,9.6 69.4,9.6 68.9,9.7C66.7,9.9 64.4,10.1 61.8,10.1C57.6,10.2 53.6,8.4 50.8,5.4C50.4,5 49.6,4.9 49.2,5.3L49.1,5.4C46.2,8.4 42.2,10.2 38.1,10.1C35.6,10.1 33.2,9.9 31,9.7C26.8,9.3 23.1,12.3 22.6,16.5C22.5,17 22.5,17.6 22.6,18.1C22.8,20.3 23,22.6 23,25.2C23.1,29.4 21.3,33.4 18.3,36.2C17.9,36.6 17.8,37.4 18.2,37.8L18.3,37.9C21.3,40.8 23.1,44.8 23,48.9C23,51.4 22.8,53.8 22.6,56C22.2,60.2 25.2,63.9 29.4,64.4C29.9,64.5 30.5,64.5 31,64.4C33.2,64.2 35.5,64 38.1,64C42.3,63.9 46.3,65.7 49.1,68.7C49.5,69.1 50.3,69.2 50.7,68.8L50.8,68.7C53.7,65.7 57.7,63.9 61.8,63.9C64.3,63.9 66.7,64.1 68.9,64.3C73.1,64.7 76.8,61.7 77.3,57.5C77.4,57 77.4,56.5 77.3,56C77.1,53.8 76.9,51.5 76.9,48.9C76.8,44.7 78.6,40.7 81.6,37.9C82.1,37.4 82.1,36.7 81.6,36.2Z" style="fill:rgb(254,189,17);fill-rule:nonzero;"></path>                <path d="M64.7,49.5L64.7,24.4C65.4,24.1 65.9,23.4 65.9,22.6C65.9,21.5 65,20.7 63.9,20.7L63.8,20.7C62.7,20.7 61.7,21.3 61.2,22.3L50,44L38.8,22.3C38.3,21.3 37.4,20.7 36.2,20.7C35.1,20.7 34.2,21.6 34.2,22.6C34.2,23.4 34.6,24 35.4,24.4L35.4,49.5C34.7,49.8 34.2,50.5 34.2,51.2C34.2,52.3 35.1,53.2 36.2,53.2L36.3,53.2C38.1,53.2 39.3,51.8 39.3,49.5L39.2,31L48.3,48.9C48.8,49.8 50,50.2 50.9,49.7C51.3,49.5 51.5,49.2 51.7,48.9L60.8,31L60.7,49.5C60.7,51.7 61.9,53.2 63.7,53.2C64.8,53.2 65.7,52.3 65.7,51.3L65.7,51.2C65.8,50.5 65.3,49.9 64.7,49.5Z" style="fill:white;fill-rule:nonzero;"></path>            </g>        </g>    </g></svg>