<svg xmlns="http://www.w3.org/2000/svg" viewBox="270 358 760 184">
  <defs>
    <style>
      .emblem-terracotta { fill: #c9502f; }
      .emblem-brown { fill: #705e42; }
      .white { fill: #fff; }
    </style>
  </defs>
  <g>
    <!-- FDR Emblem -->
    <rect class="emblem-terracotta" x="292.89" y="361.9" width="226.99" height="176.19"/>
    <polygon class="emblem-brown" points="519.88 469.01 275.31 469.01 275.27 405.85 519.88 405.85 519.88 469.01"/>
    <g>
      <polygon class="white" points="347.71 419.11 337.97 419.11 337.97 469.01 347.71 469.01 347.71 455.42 375.88 455.42 375.88 445.67 347.71 445.67 347.71 419.11"/>
      <path class="white" d="M398.36,419.11h-19.69v49.9h19.69c13.78,0,24.95-11.17,24.95-24.95h0c0-13.78-11.17-24.95-24.95-24.95ZM398.36,460.61h-9.94v-33.11h9.94c9.14,0,16.55,7.41,16.55,16.55s-7.41,16.55-16.55,16.55Z"/>
      <path class="white" d="M462.66,456.5c8.84-1.56,15.56-9.26,15.56-18.54,0-10.41-8.44-18.85-18.85-18.85h-33.26v49.9h9.75v-12.2h8.99c8,0,14.27,2.47,26.45,27.41h12.11s-7.61-17.62-20.76-27.72ZM435.86,448.39v-20.89h23.5c5.77,0,10.45,4.68,10.45,10.45s-4.68,10.45-10.45,10.45h-23.5Z"/>
    </g>
    <!-- HORIZON text -->
    <g>
      <path class="white" d="M559.7,384.92h16.75v29.18h29.94v-29.18h16.75v74.58h-16.75v-29.62h-29.94v29.62h-16.75v-74.58Z"/>
      <path class="white" d="M631.59,422.21c0-21.94,16.97-38.59,39.45-38.59s39.45,16.64,39.45,38.59-16.97,38.59-39.45,38.59-39.45-16.64-39.45-38.59ZM693.3,422.21c0-12.86-9.62-22.48-22.27-22.48s-22.27,9.62-22.27,22.48,9.62,22.48,22.27,22.48,22.27-9.62,22.27-22.48Z"/>
      <path class="white" d="M718.93,384.92h33.61c14.81,0,25.94,10.7,25.94,24.97,0,10.48-6.16,18.81-15.46,22.37l17.73,27.24h-20.75l-15.67-25.51h-8.65v25.51h-16.75v-74.58ZM735.68,400.71v18.7h16.54c5.19,0,9.08-4,9.08-9.3s-3.89-9.4-9.08-9.4h-16.54Z"/>
      <path class="white" d="M786.92,384.92h16.75v74.58h-16.75v-74.58Z"/>
      <path class="white" d="M812.32,447.51l35.24-46.8h-34.8v-15.78h57.83v12l-35.24,46.8h35.99v15.78h-59.01v-12Z"/>
      <path class="white" d="M872.75,422.21c0-21.94,16.97-38.59,39.45-38.59s39.45,16.64,39.45,38.59-16.97,38.59-39.45,38.59-39.45-16.64-39.45-38.59ZM934.47,422.21c0-12.86-9.62-22.48-22.27-22.48s-22.27,9.62-22.27,22.48,9.62,22.48,22.27,22.48,22.27-9.62,22.27-22.48Z"/>
      <path class="white" d="M960.09,384.92h16.86l31.02,45.61v-45.61h16.75v74.58h-16.97l-30.91-45.61v45.61h-16.75v-74.58Z"/>
    </g>
    <!-- DESIGN & RENOVATION text -->
    <g>
      <path class="white" d="M559.7,485.58h11.67c8.77,0,15.35,6.49,15.35,15.13s-6.58,15.13-15.35,15.13h-11.67v-30.27ZM563.74,489.35v22.72h7.59c6.4,0,11.27-4.87,11.27-11.36s-4.87-11.36-11.27-11.36h-7.59Z"/>
      <path class="white" d="M591.33,485.58h19.39v3.77h-15.35v9.39h13.91v3.77h-13.91v9.56h15.57v3.77h-19.61v-30.27Z"/>
      <path class="white" d="M613.75,507.29h4.08c0,3.11,2.98,5.48,6.8,5.48,3.6,0,6.49-2.02,6.49-5,0-7.02-16.84-3.77-16.84-14.08,0-5.26,4.56-8.64,10.18-8.64s10.22,3.73,10.22,8.69h-4.08c0-2.9-2.68-5.09-6.23-5.09-3.25,0-5.97,1.84-5.97,4.74,0,6.97,16.84,3.47,16.84,13.95,0,5.48-4.74,9.04-10.66,9.04s-10.83-3.95-10.83-9.08Z"/>
      <path class="white" d="M639.77,485.58h4.04v30.27h-4.04v-30.27Z"/>
      <path class="white" d="M648.45,500.71c0-8.9,6.84-15.66,15.84-15.66,6.89,0,12.55,3.9,14.56,9.56h-4.47c-1.89-3.47-5.61-5.7-10.09-5.7-6.67,0-11.71,5.09-11.71,11.8s5.04,11.8,11.71,11.8c5.83,0,10.44-3.77,11.23-9.12h-10.13v-3.64h14.39v1.32c0,8.77-6.62,15.31-15.48,15.31s-15.84-6.76-15.84-15.66Z"/>
      <path class="white" d="M684.38,485.58h4.17l17.11,23.6v-23.6h3.99v30.27h-4.12l-17.11-23.6v23.6h-4.04v-30.27Z"/>
      <path class="white" d="M723.95,506.77c0-4.56,2.94-7.11,6.1-8.95-1.62-2.19-2.85-4.34-2.85-6.62,0-3.46,3.11-6.14,7.15-6.14s7.11,2.63,7.11,6.27c0,3.38-2.81,5.35-6.23,7.19l7.59,9.34c.31-.83.48-1.75.48-2.72v-3.95h3.55v3.95c0,2.15-.66,4.08-1.67,5.61l4.12,5.09h-4.43l-2.11-2.54c-1.97,2.15-4.91,3.07-7.85,3.07-6.36,0-10.97-3.99-10.97-9.61ZM735.05,512.86c2.24,0,4.21-.75,5.66-2.02l-8.64-10.53c-2.46,1.53-4.34,3.42-4.34,6.27,0,3.6,3.16,6.27,7.33,6.27ZM733.25,496.11c2.54-1.36,4.65-2.72,4.65-4.78,0-1.84-1.58-3.25-3.6-3.25s-3.51,1.36-3.51,3.16c0,1.49.96,2.94,2.46,4.87Z"/>
      <path class="white" d="M762.34,485.58h12.94c5.4,0,9.48,3.95,9.48,9.21,0,4.74-3.38,8.34-7.98,8.95l8.86,12.11h-5l-8.64-12.02h-5.61v12.02h-4.04v-30.27ZM766.38,489.35v10.97h8.86c3.07,0,5.4-2.33,5.4-5.48s-2.32-5.48-5.4-5.48h-8.86Z"/>
      <path class="white" d="M789.28,485.58h19.39v3.77h-15.35v9.39h13.9v3.77h-13.9v9.56h15.57v3.77h-19.61v-30.27Z"/>
      <path class="white" d="M813.54,485.58h4.17l17.11,23.6v-23.6h3.99v30.27h-4.12l-17.11-23.6v23.6h-4.04v-30.27Z"/>
      <path class="white" d="M843.5,500.71c0-8.9,6.84-15.66,15.84-15.66s15.84,6.76,15.84,15.66-6.8,15.66-15.84,15.66-15.84-6.76-15.84-15.66ZM871.05,500.71c0-6.71-5.04-11.8-11.71-11.8s-11.71,5.09-11.71,11.8,5.04,11.8,11.71,11.8,11.71-5.09,11.71-11.8Z"/>
      <path class="white" d="M875.35,485.58h4.47l10.18,25.05,10.13-25.05h4.39l-12.5,30.27h-4.21l-12.46-30.27Z"/>
      <path class="white" d="M913.87,485.58h4.78l12.33,30.27h-4.43l-2.94-7.33h-14.83l-2.94,7.33h-4.3l12.33-30.27ZM922.12,504.79l-5.92-14.83-5.92,14.83h11.84Z"/>
      <path class="white" d="M937.34,489.35h-9.12v-3.77h22.28v3.77h-9.12v26.49h-4.04v-26.49Z"/>
      <path class="white" d="M954.45,485.58h4.04v30.27h-4.04v-30.27Z"/>
      <path class="white" d="M963.14,500.71c0-8.9,6.84-15.66,15.84-15.66s15.84,6.76,15.84,15.66-6.8,15.66-15.84,15.66-15.84-6.76-15.84-15.66ZM990.68,500.71c0-6.71-5.04-11.8-11.71-11.8s-11.71,5.09-11.71,11.8,5.04,11.8,11.71,11.8,11.71-5.09,11.71-11.8Z"/>
      <path class="white" d="M999.46,485.58h4.17l17.11,23.6v-23.6h3.99v30.27h-4.12l-17.11-23.6v23.6h-4.04v-30.27Z"/>
    </g>
  </g>
</svg>