<svg xmlns="http://www.w3.org/2000/svg" viewBox="270 358 250 220">
  <rect class="emblem-terracotta" x="292.89" y="361.9" width="226.99" height="176.19" fill="#c9502f"/>
  <polygon class="emblem-brown" points="519.88 469.01 275.31 469.01 275.27 405.85 519.88 405.85 519.88 469.01" fill="#705e42"/>
  <g>
    <polygon class="white" points="347.71 419.11 337.97 419.11 337.97 469.01 347.71 469.01 347.71 455.42 375.88 455.42 375.88 445.67 347.71 445.67 347.71 419.11" fill="#fff"/>
    <path class="white" d="M398.36,419.11h-19.69v49.9h19.69c13.78,0,24.95-11.17,24.95-24.95h0c0-13.78-11.17-24.95-24.95-24.95ZM398.36,460.61h-9.94v-33.11h9.94c9.14,0,16.55,7.41,16.55,16.55s-7.41,16.55-16.55,16.55Z" fill="#fff"/>
    <path class="white" d="M462.66,456.5c8.84-1.56,15.56-9.26,15.56-18.54,0-10.41-8.44-18.85-18.85-18.85h-33.26v49.9h9.75v-12.2h8.99c8,0,14.27,2.47,26.45,27.41h12.11s-7.61-17.62-20.76-27.72ZM435.86,448.39v-20.89h23.5c5.77,0,10.45,4.68,10.45,10.45s-4.68,10.45-10.45,10.45h-23.5Z" fill="#fff"/>
  </g>
</svg>
